<svg xmlns="http://www.w3.org/2000/svg" width="1500" height="1500" viewBox="0 0 1500 1500">
<rect width="100%" height="100%" fill="#D29C34"/>
<path d="M768.00,953.00 L768.00,997.00 L776.00,1000.00 L776.00,1014.00 L785.00,1023.00 L821.00,1023.00 L831.00,1014.00 L831.00,993.00 L836.00,989.00 L841.00,999.00 L1061.00,999.00 L1065.00,991.00 L1073.00,999.00 L1095.00,998.00 L1094.00,928.00 L1048.00,931.00 L1045.00,985.00 L1033.00,985.00 L1031.00,977.00 L1023.00,974.00 L1023.00,961.00 L1008.00,960.00 L1005.00,952.00 L991.00,952.00 L977.00,961.00 L974.00,985.00 L960.00,985.00 L959.00,969.00 L936.00,952.00 L929.00,953.00 L926.00,960.00 L913.00,961.00 L910.00,968.00 L889.00,968.00 L887.00,985.00 L865.00,985.00 L862.00,928.00 L840.00,929.00 L843.00,974.00 L838.00,984.00 L831.00,982.00 L831.00,954.00 L815.00,951.00 L814.00,936.00 L794.00,936.00 L791.00,952.00 Z" fill="#0E1A2A" fill-rule="evenodd" />
<path d="M719.00,930.00 L696.00,932.00 L696.00,948.00 L704.00,953.00 L704.00,974.00 L696.00,977.00 L695.00,985.00 L681.00,985.00 L679.00,969.00 L670.00,960.00 L655.00,958.00 L663.00,950.00 L663.00,938.00 L649.00,936.00 L648.00,973.00 L656.00,983.00 L634.00,984.00 L630.00,992.00 L615.00,982.00 L615.00,969.00 L598.00,952.00 L545.00,953.00 L545.00,974.00 L553.00,977.00 L550.00,985.00 L527.00,982.00 L525.00,952.00 L504.00,954.00 L503.00,985.00 L490.00,985.00 L487.00,971.00 L479.00,972.00 L479.00,961.00 L470.00,952.00 L442.00,952.00 L423.00,976.00 L400.00,977.00 L400.00,1005.00 L416.00,1017.00 L419.00,1039.00 L446.00,1039.00 L447.00,1025.00 L463.00,1013.00 L465.00,991.00 L473.00,999.00 L502.00,998.00 L506.00,1023.00 L527.00,1021.00 L529.00,998.00 L718.00,999.00 Z" fill="#0E1A2A" fill-rule="evenodd" />
<path d="M901.00,384.00 L857.00,384.00 L854.00,392.00 L832.00,393.00 L830.00,400.00 L809.00,400.00 L808.00,406.00 L801.00,408.00 L798.00,416.00 L776.00,417.00 L777.00,431.00 L798.00,430.00 L800.00,438.00 L793.00,440.00 L790.00,448.00 L764.00,449.00 L768.00,462.00 L761.00,465.00 L758.00,472.00 L752.00,473.00 L754.00,487.00 L766.00,485.00 L769.00,479.00 L775.00,478.00 L777.00,471.00 L791.00,470.00 L791.00,465.00 L798.00,463.00 L799.00,457.00 L806.00,455.00 L807.00,449.00 L814.00,447.00 L817.00,439.00 L824.00,440.00 L824.00,454.00 L816.00,458.00 L816.00,470.00 L809.00,472.00 L808.00,478.00 L801.00,480.00 L800.00,486.00 L793.00,488.00 L792.00,494.00 L782.00,504.00 L776.00,505.00 L776.00,518.00 L760.00,530.00 L761.00,543.00 L774.00,543.00 L775.00,537.00 L782.00,535.00 L785.00,527.00 L791.00,526.00 L790.00,521.00 L799.00,518.00 L799.00,505.00 L806.00,503.00 L809.00,495.00 L822.00,495.00 L823.00,481.00 L831.00,478.00 L831.00,465.00 L838.00,463.00 L839.00,457.00 L846.00,455.00 L849.00,447.00 L855.00,446.00 L857.00,438.00 L863.00,438.00 L864.00,430.00 L870.00,430.00 L872.00,437.00 L878.00,439.00 L878.00,434.00 L894.00,422.00 L895.00,401.00 L903.00,398.00 Z" fill="#0E1A2A" fill-rule="evenodd" />
<path d="M799.00,353.00 L689.00,353.00 L686.00,360.00 L658.00,360.00 L654.00,368.00 L642.00,368.00 L638.00,376.00 L625.00,377.00 L622.00,384.00 L609.00,384.00 L590.00,408.00 L577.00,408.00 L576.00,415.00 L568.00,417.00 L569.00,423.00 L561.00,424.00 L561.00,430.00 L552.00,434.00 L552.00,446.00 L528.00,466.00 L528.00,478.00 L520.00,481.00 L518.00,496.00 L513.00,496.00 L502.00,480.00 L488.00,481.00 L488.00,514.00 L496.00,521.00 L496.00,566.00 L502.00,567.00 L505.00,575.00 L511.00,574.00 L511.00,545.00 L519.00,541.00 L519.00,528.00 L526.00,526.00 L527.00,505.00 L535.00,502.00 L534.00,490.00 L550.00,478.00 L551.00,465.00 L558.00,463.00 L559.00,457.00 L566.00,455.00 L575.00,440.00 L583.00,438.00 L583.00,433.00 L590.00,431.00 L609.00,407.00 L622.00,407.00 L633.00,390.00 L646.00,391.00 L649.00,382.00 L662.00,383.00 L665.00,375.00 L685.00,375.00 L689.00,367.00 L797.00,367.00 Z" fill="#0E1A2A" fill-rule="evenodd" />
<path d="M999.00,626.00 L986.00,626.00 L985.00,652.00 L976.00,657.00 L976.00,670.00 L968.00,673.00 L968.00,694.00 L960.00,697.00 L952.00,718.00 L936.00,729.00 L936.00,742.00 L929.00,744.00 L902.00,776.00 L889.00,777.00 L889.00,782.00 L870.00,800.00 L857.00,800.00 L854.00,808.00 L842.00,809.00 L838.00,816.00 L818.00,816.00 L814.00,824.00 L777.00,824.00 L774.00,832.00 L721.00,832.00 L718.00,825.00 L707.00,824.00 L697.00,838.00 L713.00,839.00 L719.00,847.00 L790.00,846.00 L793.00,839.00 L828.00,839.00 L833.00,831.00 L846.00,831.00 L849.00,823.00 L870.00,822.00 L881.00,807.00 L893.00,807.00 L905.00,790.00 L911.00,790.00 L911.00,785.00 L918.00,783.00 L919.00,777.00 L926.00,775.00 L953.00,743.00 L959.00,742.00 L959.00,729.00 L974.00,718.00 L977.00,703.00 L990.00,703.00 L1001.00,719.00 L1007.00,718.00 L1006.00,673.00 L999.00,670.00 L997.00,655.00 Z" fill="#0E1A2A" fill-rule="evenodd" />
<path d="M879.00,585.00 L858.00,584.00 L856.00,588.00 L864.00,598.00 L854.00,608.00 L841.00,608.00 L838.00,616.00 L818.00,616.00 L814.00,624.00 L801.00,624.00 L798.00,632.00 L730.00,632.00 L728.00,654.00 L720.00,658.00 L721.00,680.00 L720.00,686.00 L713.00,689.00 L712.00,710.00 L705.00,712.00 L702.00,720.00 L690.00,721.00 L686.00,729.00 L673.00,729.00 L662.00,744.00 L649.00,744.00 L648.00,750.00 L632.00,761.00 L632.00,790.00 L619.00,792.00 L614.00,800.00 L601.00,803.00 L600.00,814.00 L584.00,825.00 L584.00,838.00 L606.00,839.00 L607.00,825.00 L614.00,822.00 L614.00,817.00 L630.00,815.00 L631.00,809.00 L639.00,806.00 L639.00,793.00 L647.00,790.00 L647.00,776.00 L654.00,774.00 L655.00,761.00 L665.00,753.00 L671.00,756.00 L681.00,743.00 L694.00,742.00 L696.00,735.00 L710.00,735.00 L711.00,729.00 L719.00,726.00 L719.00,713.00 L727.00,710.00 L727.00,689.00 L735.00,686.00 L735.00,673.00 L750.00,663.00 L753.00,655.00 L781.00,655.00 L785.00,647.00 L805.00,647.00 L809.00,639.00 L830.00,639.00 L833.00,631.00 L846.00,631.00 L849.00,623.00 L862.00,623.00 L863.00,617.00 L879.00,606.00 Z" fill="#0E1A2A" fill-rule="evenodd" />
<path d="M743.00,561.00 L723.00,560.00 L718.00,568.00 L705.00,568.00 L702.00,576.00 L681.00,576.00 L678.00,584.00 L659.00,584.00 L654.00,592.00 L641.00,592.00 L630.00,608.00 L624.00,608.00 L611.00,592.00 L561.00,592.00 L558.00,600.00 L546.00,600.00 L542.00,608.00 L529.00,608.00 L528.00,615.00 L505.00,632.00 L504.00,645.00 L513.00,654.00 L505.00,656.00 L504.00,662.00 L488.00,674.00 L488.00,686.00 L499.00,687.00 L505.00,679.00 L518.00,679.00 L519.00,665.00 L535.00,654.00 L534.00,643.00 L543.00,638.00 L545.00,630.00 L551.00,630.00 L550.00,624.00 L558.00,623.00 L560.00,615.00 L573.00,614.00 L577.00,607.00 L624.00,608.00 L624.00,614.00 L617.00,617.00 L616.00,630.00 L608.00,636.00 L608.00,660.00 L616.00,659.00 L617.00,679.00 L630.00,679.00 L631.00,625.00 L646.00,615.00 L649.00,607.00 L670.00,606.00 L674.00,598.00 L694.00,599.00 L697.00,591.00 L712.00,593.00 L712.00,613.00 L726.00,615.00 L727.00,609.00 L735.00,606.00 L735.00,595.00 L721.00,592.00 L719.00,585.00 L728.00,583.00 L734.00,575.00 L742.00,575.00 Z" fill="#0E1A2A" fill-rule="evenodd" />
<path d="M392.00,1073.00 L392.00,1102.00 L400.00,1105.00 L401.00,1118.00 L414.00,1119.00 L418.00,1127.00 L454.00,1126.00 L457.00,1119.00 L463.00,1118.00 L465.00,1111.00 L470.00,1111.00 L472.00,1118.00 L480.00,1121.00 L481.00,1127.00 L510.00,1127.00 L511.00,1121.00 L518.00,1119.00 L521.00,1111.00 L529.00,1113.00 L529.00,1126.00 L543.00,1125.00 L541.00,1048.00 L528.00,1049.00 L527.00,1088.00 L519.00,1086.00 L518.00,1073.00 L473.00,1073.00 L470.00,1088.00 L449.00,1089.00 L448.00,1112.00 L417.00,1112.00 L415.00,1097.00 L407.00,1094.00 L407.00,1081.00 L414.00,1079.00 L415.00,1073.00 L430.00,1062.00 L438.00,1063.00 L441.00,1071.00 L463.00,1070.00 L462.00,1065.00 L455.00,1062.00 L454.00,1056.00 L441.00,1056.00 L435.00,1048.00 L425.00,1049.00 L423.00,1056.00 L409.00,1056.00 L408.00,1062.00 L401.00,1064.00 L398.00,1072.00 Z" fill="#0E1A2A" fill-rule="evenodd" />
<path d="M968.00,1073.00 L969.00,1127.00 L983.00,1126.00 L981.00,1097.00 L983.00,1089.00 L990.00,1086.00 L993.00,1079.00 L1001.00,1081.00 L1000.00,1094.00 L1006.00,1095.00 L1009.00,1103.00 L1030.00,1103.00 L1032.00,1105.00 L1030.00,1112.00 L1003.00,1112.00 L1000.00,1118.00 L1006.00,1119.00 L1009.00,1127.00 L1037.00,1127.00 L1041.00,1119.00 L1047.00,1118.00 L1049.00,1111.00 L1054.00,1111.00 L1056.00,1118.00 L1064.00,1121.00 L1065.00,1127.00 L1094.00,1127.00 L1094.00,1121.00 L1103.00,1118.00 L1103.00,1113.00 L1095.00,1110.00 L1095.00,1105.00 L1103.00,1102.00 L1102.00,1081.00 L1095.00,1078.00 L1094.00,1072.00 L1057.00,1072.00 L1055.00,1080.00 L1049.00,1080.00 L1046.00,1072.00 Z" fill="#0E1A2A" fill-rule="evenodd" />
<path d="M897.00,448.00 L896.00,462.00 L888.00,467.00 L888.00,502.00 L857.00,504.00 L856.00,518.00 L878.00,519.00 L888.00,529.00 L888.00,534.00 L896.00,537.00 L896.00,542.00 L889.00,544.00 L888.00,550.00 L894.00,551.00 L899.00,559.00 L917.00,558.00 L921.00,551.00 L927.00,550.00 L929.00,543.00 L946.00,545.00 L945.00,558.00 L936.00,562.00 L936.00,574.00 L928.00,577.00 L928.00,598.00 L921.00,600.00 L918.00,608.00 L912.00,609.00 L912.00,622.00 L927.00,622.00 L929.00,615.00 L941.00,615.00 L943.00,601.00 L951.00,598.00 L951.00,561.00 L959.00,558.00 L959.00,521.00 L945.00,520.00 L942.00,513.00 L929.00,513.00 L926.00,520.00 L912.00,522.00 L910.00,536.00 L901.00,533.00 L902.00,513.00 L895.00,510.00 L895.00,489.00 L902.00,486.00 L903.00,473.00 L910.00,471.00 L913.00,463.00 L927.00,462.00 L927.00,452.00 L923.00,448.00 Z" fill="#0E1A2A" fill-rule="evenodd" />
<path d="M605.00,1048.00 L593.00,1048.00 L592.00,1049.00 L593.00,1070.00 L591.00,1072.00 L561.00,1072.00 L560.00,1073.00 L560.00,1078.00 L558.00,1080.00 L553.00,1080.00 L552.00,1081.00 L552.00,1104.00 L553.00,1105.00 L552.00,1117.00 L554.00,1119.00 L558.00,1119.00 L560.00,1121.00 L562.00,1127.00 L572.00,1127.00 L573.00,1126.00 L606.00,1127.00 L607.00,1126.00 L607.00,1121.00 L606.00,1120.00 L606.00,1052.00 L607.00,1050.00 Z" fill="#0E1A2A" fill-rule="evenodd" />
<path d="M841.00,1080.00 L840.00,1081.00 L840.00,1110.00 L841.00,1111.00 L846.00,1111.00 L848.00,1113.00 L848.00,1118.00 L849.00,1119.00 L854.00,1119.00 L856.00,1121.00 L856.00,1126.00 L857.00,1127.00 L867.00,1127.00 L868.00,1126.00 L872.00,1126.00 L873.00,1127.00 L886.00,1127.00 L887.00,1126.00 L887.00,1121.00 L889.00,1119.00 L894.00,1119.00 L895.00,1118.00 L895.00,1081.00 L894.00,1080.00 L889.00,1080.00 L887.00,1078.00 L887.00,1073.00 L886.00,1072.00 L852.00,1072.00 L848.00,1075.00 L848.00,1078.00 L846.00,1080.00 Z" fill="#0E1A2A" fill-rule="evenodd" />
<path d="M625.00,1072.00 L625.00,1078.00 L623.00,1080.00 L618.00,1080.00 L616.00,1082.00 L616.00,1110.00 L617.00,1111.00 L622.00,1111.00 L624.00,1113.00 L624.00,1118.00 L625.00,1119.00 L630.00,1119.00 L632.00,1121.00 L632.00,1126.00 L633.00,1127.00 L639.00,1127.00 L640.00,1126.00 L662.00,1127.00 L663.00,1126.00 L662.00,1125.00 L662.00,1121.00 L664.00,1119.00 L670.00,1119.00 L671.00,1118.00 L671.00,1113.00 L670.00,1112.00 L665.00,1112.00 L663.00,1110.00 L663.00,1105.00 L665.00,1103.00 L670.00,1103.00 L671.00,1102.00 L670.00,1081.00 L669.00,1080.00 L665.00,1080.00 L663.00,1078.00 L663.00,1073.00 L662.00,1072.00 L640.00,1072.00 L639.00,1073.00 Z" fill="#0E1A2A" fill-rule="evenodd" />
<path d="M769.00,1056.00 L768.00,1125.00 L770.00,1127.00 L783.00,1126.00 L782.00,1096.00 L784.00,1094.00 L815.00,1094.00 L817.00,1096.00 L816.00,1126.00 L830.00,1126.00 L831.00,1057.00 L817.00,1057.00 L817.00,1079.00 L815.00,1081.00 L784.00,1081.00 L782.00,1079.00 L783.00,1058.00 L781.00,1056.00 Z" fill="#0E1A2A" fill-rule="evenodd" />
<path d="M913.00,385.00 L913.00,399.00 L936.00,400.00 L936.00,430.00 L950.00,431.00 L952.00,433.00 L953.00,439.00 L966.00,439.00 L968.00,441.00 L968.00,446.00 L974.00,447.00 L976.00,449.00 L976.00,462.00 L982.00,463.00 L984.00,465.00 L985.00,475.00 L991.00,479.00 L1005.00,479.00 L1007.00,477.00 L1007.00,466.00 L999.00,462.00 L998.00,456.00 L993.00,456.00 L991.00,454.00 L991.00,444.00 L989.00,441.00 L982.00,438.00 L983.00,433.00 L976.00,432.00 L974.00,430.00 L975.00,425.00 L969.00,424.00 L967.00,422.00 L967.00,417.00 L961.00,416.00 L959.00,414.00 L959.00,409.00 L953.00,408.00 L951.00,406.00 L950.00,400.00 L941.00,401.00 L935.00,399.00 L935.00,378.00 L933.00,376.00 L929.00,376.00 L928.00,383.00 L926.00,385.00 Z" fill="#0E1A2A" fill-rule="evenodd" />
<path d="M905.00,1072.00 L904.00,1073.00 L904.00,1118.00 L910.00,1119.00 L913.00,1122.00 L913.00,1127.00 L928.00,1127.00 L929.00,1126.00 L958.00,1127.00 L959.00,1122.00 L956.00,1119.00 L956.00,1081.00 L959.00,1078.00 L959.00,1073.00 L958.00,1072.00 L946.00,1072.00 L944.00,1074.00 L944.00,1110.00 L942.00,1112.00 L926.00,1113.00 L921.00,1112.00 L919.00,1110.00 L919.00,1105.00 L917.00,1102.00 L917.00,1081.00 L919.00,1078.00 L919.00,1074.00 L917.00,1072.00 Z" fill="#0E1A2A" fill-rule="evenodd" />
<path d="M682.00,1072.00 L680.00,1075.00 L681.00,1078.00 L680.00,1125.00 L684.00,1127.00 L695.00,1126.00 L695.00,1089.00 L697.00,1087.00 L702.00,1087.00 L703.00,1081.00 L705.00,1079.00 L711.00,1079.00 L713.00,1081.00 L713.00,1087.00 L718.00,1087.00 L720.00,1089.00 L721.00,1094.00 L720.00,1125.00 L722.00,1127.00 L734.00,1126.00 L735.00,1125.00 L734.00,1119.00 L735.00,1089.00 L729.00,1088.00 L727.00,1086.00 L727.00,1073.00 L726.00,1072.00 Z" fill="#0E1A2A" fill-rule="evenodd" />
<path d="M728.00,929.00 L728.00,934.00 L729.00,935.00 L728.00,942.00 L730.00,945.00 L729.00,960.00 L728.00,961.00 L728.00,982.00 L730.00,985.00 L730.00,991.00 L728.00,994.00 L728.00,998.00 L729.00,999.00 L734.00,999.00 L735.00,998.00 L749.00,999.00 L751.00,996.00 L751.00,994.00 L750.00,993.00 L750.00,984.00 L751.00,983.00 L751.00,969.00 L749.00,966.00 L749.00,960.00 L750.00,959.00 L750.00,945.00 L748.00,942.00 L748.00,937.00 L751.00,932.00 L751.00,929.00 L750.00,928.00 L736.00,928.00 L735.00,929.00 Z" fill="#0E1A2A" fill-rule="evenodd" />
<path d="M643.00,640.00 L640.00,642.00 L640.00,666.00 L641.00,667.00 L640.00,685.00 L641.00,686.00 L646.00,687.00 L648.00,689.00 L648.00,694.00 L649.00,695.00 L654.00,695.00 L656.00,697.00 L656.00,702.00 L657.00,703.00 L662.00,703.00 L664.00,705.00 L664.00,710.00 L665.00,711.00 L677.00,711.00 L679.00,707.00 L679.00,705.00 L678.00,704.00 L678.00,699.00 L679.00,697.00 L678.00,696.00 L676.00,697.00 L672.00,697.00 L670.00,695.00 L670.00,691.00 L671.00,689.00 L665.00,689.00 L663.00,687.00 L663.00,683.00 L661.00,680.00 L657.00,680.00 L655.00,678.00 L655.00,657.00 L654.00,656.00 L649.00,656.00 L647.00,654.00 L647.00,642.00 Z" fill="#0E1A2A" fill-rule="evenodd" />
</svg>